<svg id="svg" version="1.1" width="512" height="461" xmlns="http://www.w3.org/2000/svg"><path d="M221.403 7.842 C 215.203 8.246,210.667 9.030,209.653 9.872 C 208.160 11.112,208.000 15.643,208.000 56.587 C 208.000 100.392,207.934 101.965,206.066 102.965 C 204.000 104.070,186.006 104.376,182.250 103.370 L 180.000 102.767 180.000 72.494 C 180.000 35.524,180.990 38.086,166.392 37.282 C 154.539 36.629,145.591 37.552,143.499 39.643 C 142.206 40.937,142.000 48.138,142.000 92.015 L 142.000 142.887 144.223 144.443 C 146.178 145.813,154.198 146.000,211.068 146.000 C 272.403 146.000,275.774 145.907,277.345 144.171 C 278.850 142.509,279.000 136.377,279.000 76.694 L 279.000 11.046 276.700 9.539 C 274.889 8.352,269.837 7.942,252.950 7.608 C 241.152 7.375,226.956 7.481,221.403 7.842 M379.219 23.750 C 378.823 24.712,378.500 59.068,378.500 100.096 C 378.500 161.853,378.736 174.977,379.872 176.346 C 381.110 177.837,385.413 178.000,423.500 178.000 C 459.882 178.000,465.929 177.791,467.003 176.497 C 468.326 174.902,468.126 168.695,466.065 147.500 C 459.774 82.794,439.231 46.396,398.609 27.977 C 385.130 21.865,380.415 20.837,379.219 23.750 M93.951 26.366 C 64.628 39.238,46.021 58.960,34.133 89.769 C 29.422 101.978,24.000 122.875,24.000 128.822 C 24.000 130.498,23.546 133.063,22.992 134.522 C 22.437 135.981,21.524 142.873,20.962 149.837 C 20.400 156.802,19.545 165.379,19.062 168.898 C 18.579 172.417,18.043 191.476,17.872 211.251 C 17.573 245.688,17.641 247.264,19.471 248.603 C 21.035 249.746,28.959 250.000,63.120 250.000 C 105.573 250.000,105.737 249.988,108.129 246.679 C 108.200 246.580,108.538 239.750,108.879 231.500 L 109.500 216.500 228.200 216.000 C 310.294 215.654,347.229 215.171,347.967 214.434 C 349.670 212.730,348.914 40.512,347.196 38.800 C 346.244 37.850,341.894 37.501,331.049 37.502 C 317.881 37.504,315.969 37.718,314.110 39.401 C 312.027 41.285,312.012 41.716,311.757 107.899 L 311.500 174.500 211.608 174.755 C 138.628 174.941,111.351 174.706,110.358 173.882 C 109.237 172.952,109.000 160.475,109.000 102.517 C 109.000 63.886,108.714 30.191,108.364 27.640 C 107.761 23.242,107.566 23.001,104.614 23.026 C 102.901 23.041,98.103 24.544,93.951 26.366 M380.898 212.882 C 378.705 214.657,378.544 215.603,378.037 229.632 L 377.500 244.500 261.404 245.000 C 165.018 245.415,145.026 245.733,143.654 246.872 C 142.139 248.130,142.000 255.458,142.000 334.051 C 142.000 409.291,142.186 420.043,143.512 421.369 C 145.713 423.571,152.788 424.341,165.343 423.746 C 175.219 423.277,176.595 422.984,178.201 421.000 C 179.892 418.912,180.000 414.877,180.000 354.080 C 180.000 303.895,180.280 289.001,181.250 287.683 C 182.414 286.100,189.224 286.001,280.000 286.242 L 377.500 286.500 378.000 360.000 C 378.275 400.425,378.864 434.063,379.309 434.750 C 382.249 439.293,404.039 430.017,420.347 417.281 C 428.141 411.194,429.863 409.397,437.535 399.342 C 460.007 369.891,469.498 323.698,468.803 247.168 C 468.515 215.517,468.402 213.765,466.559 212.418 C 464.958 211.249,457.477 211.000,423.920 211.000 C 385.565 211.000,383.088 211.108,380.898 212.882 M19.200 284.200 C 17.526 285.874,17.704 298.940,19.517 307.500 C 20.333 311.349,21.000 316.115,21.000 318.090 C 21.000 322.183,24.024 337.675,27.129 349.492 C 33.357 373.194,44.658 394.200,59.245 409.190 C 65.100 415.206,78.864 424.988,87.648 429.374 C 102.081 436.582,106.126 437.501,108.002 433.997 C 108.744 432.610,108.985 409.385,108.787 358.460 C 108.537 294.396,108.307 284.804,107.000 283.978 C 104.643 282.489,20.699 282.701,19.200 284.200 M210.000 317.000 C 208.042 318.958,208.000 320.333,208.000 383.045 L 208.000 447.091 210.455 449.545 L 212.909 452.000 243.763 452.000 C 268.826 452.000,274.982 451.734,276.559 450.581 C 278.421 449.220,278.520 447.216,279.000 401.331 L 279.500 353.500 294.500 352.901 C 304.969 352.483,309.874 352.642,310.738 353.425 C 311.672 354.272,311.990 362.467,312.028 386.713 C 312.076 416.586,312.213 419.042,313.948 421.184 C 315.750 423.410,316.352 423.491,330.986 423.496 C 344.850 423.500,346.278 423.333,347.578 421.559 C 348.763 419.942,349.000 411.261,349.000 369.531 C 349.000 325.818,348.802 319.162,347.443 317.223 L 345.887 315.000 278.943 315.000 C 213.333 315.000,211.960 315.040,210.000 317.000 " stroke="none" fill="undefined" fill-rule="evenodd"/></svg>