<svg aria-hidden="true" style="position: absolute; width: 0; height: 0; overflow: hidden;" version="1.1" xmlns="http://www.w3.org/2000/svg" xmlns:xlink="http://www.w3.org/1999/xlink">
<defs>
<symbol id="icon-gears" viewBox="0 0 42 32">
<path d="M3.692 21.72c0.176 0.042 0.415 0.259 0.484 0.457l0.35 0.844c0.079 0.162 0.064 0.483-0.030 0.637l-1.397 2.284c-0.299 0.49-0.237 1.184 0.165 1.634l1.183 1.182c0.412 0.366 1.139 0.432 1.613 0.145l2.284-1.397c0.143-0.088 0.45-0.119 0.665-0.018l0.843 0.348c0.17 0.059 0.387 0.297 0.429 0.473l0.627 2.604c0.133 0.552 0.66 1.006 1.226 1.058 0 0 0.347 0.032 0.867 0.032s0.867-0.032 0.868-0.032c0.565-0.051 1.092-0.506 1.225-1.058l0.628-2.604c0.042-0.175 0.258-0.414 0.456-0.483l0.844-0.35c0.149-0.073 0.494-0.058 0.637 0.030l2.284 1.397c0.201 0.123 0.441 0.188 0.696 0.188 0.345 0 0.679-0.121 0.938-0.352l1.182-1.183c0.382-0.429 0.444-1.123 0.145-1.613l-1.397-2.284c-0.094-0.154-0.109-0.475-0.018-0.665l0.348-0.843c0.059-0.17 0.297-0.387 0.473-0.429l2.604-0.627c0.552-0.133 1.006-0.66 1.058-1.226 0 0 0.032-0.347 0.032-0.867s-0.032-0.867-0.032-0.868c-0.051-0.565-0.506-1.092-1.058-1.226l-2.603-0.626c-0.176-0.042-0.415-0.259-0.484-0.457l-0.35-0.844c-0.079-0.162-0.064-0.483 0.030-0.637l1.397-2.284c0.299-0.49 0.237-1.184-0.165-1.634l-1.183-1.182c-0.413-0.367-1.141-0.433-1.613-0.145l-2.284 1.397c-0.143 0.087-0.451 0.12-0.665 0.018l-0.843-0.348c-0.17-0.059-0.386-0.297-0.428-0.473l-0.628-2.604c-0.133-0.552-0.66-1.006-1.226-1.058-0.002 0.001-0.349-0.031-0.869-0.031s-0.867 0.032-0.868 0.032c-0.565 0.051-1.092 0.506-1.226 1.058l-0.626 2.602c-0.042 0.176-0.259 0.415-0.457 0.484l-0.844 0.35c-0.15 0.073-0.494 0.057-0.637-0.030l-2.283-1.397c-0.473-0.288-1.185-0.238-1.634 0.164l-1.182 1.183c-0.382 0.429-0.444 1.123-0.145 1.613l1.397 2.284c0.094 0.154 0.109 0.475 0.018 0.665l-0.348 0.843c-0.059 0.17-0.297 0.387-0.473 0.429l-2.604 0.627c-0.552 0.133-1.006 0.66-1.058 1.226 0.002 0-0.030 0.347-0.030 0.867s0.032 0.867 0.032 0.868c0.051 0.565 0.506 1.092 1.058 1.226l2.602 0.626zM1 19c0-0.458 0.027-0.767 0.028-0.777 0.012-0.135 0.165-0.312 0.296-0.344l2.604-0.627c0.505-0.122 1.014-0.584 1.172-1.047l0.324-0.787c0.228-0.467 0.196-1.153-0.075-1.597l-1.397-2.283c-0.067-0.111-0.048-0.331 0.018-0.406l1.141-1.142c0.091-0.081 0.323-0.101 0.427-0.038l2.284 1.397c0.433 0.265 1.175 0.283 1.568 0.088l0.788-0.326c0.491-0.169 0.953-0.678 1.075-1.184l0.626-2.603c0.032-0.132 0.209-0.285 0.344-0.297 0.010 0 0.319-0.027 0.777-0.027s0.767 0.027 0.777 0.028c0.135 0.012 0.312 0.165 0.344 0.296l0.627 2.603c0.122 0.505 0.583 1.015 1.047 1.173l0.787 0.324c0.457 0.224 1.165 0.189 1.597-0.075l2.283-1.397c0.104-0.063 0.35-0.030 0.406 0.018l1.142 1.141c0.086 0.097 0.105 0.316 0.038 0.427l-1.397 2.284c-0.271 0.443-0.303 1.13-0.088 1.568l0.326 0.788c0.169 0.491 0.678 0.953 1.184 1.075l2.603 0.626c0.132 0.032 0.285 0.209 0.297 0.344 0 0.010 0.027 0.319 0.027 0.777s-0.027 0.767-0.028 0.777c-0.012 0.135-0.165 0.312-0.296 0.344l-2.604 0.627c-0.505 0.122-1.014 0.584-1.172 1.047l-0.324 0.787c-0.228 0.467-0.196 1.153 0.075 1.597l1.397 2.283c0.067 0.111 0.048 0.331-0.018 0.406l-1.141 1.142c-0.054 0.048-0.152 0.079-0.251 0.079-0.069 0-0.133-0.015-0.175-0.041l-2.284-1.397c-0.432-0.264-1.174-0.283-1.568-0.088l-0.788 0.326c-0.491 0.169-0.953 0.679-1.074 1.184l-0.627 2.603c-0.032 0.132-0.209 0.285-0.344 0.297-0.011 0-0.32 0.027-0.778 0.027s-0.767-0.027-0.777-0.028c-0.135-0.012-0.312-0.165-0.344-0.296l-0.627-2.604c-0.122-0.505-0.584-1.014-1.047-1.172l-0.787-0.324c-0.204-0.1-0.451-0.152-0.715-0.152-0.329 0-0.642 0.081-0.882 0.228l-2.283 1.397c-0.104 0.063-0.351 0.029-0.406-0.018l-1.142-1.142c-0.086-0.097-0.105-0.316-0.038-0.427l1.397-2.284c0.271-0.443 0.303-1.13 0.088-1.568l-0.326-0.788c-0.169-0.491-0.678-0.953-1.184-1.075l-2.603-0.626c-0.132-0.032-0.285-0.209-0.297-0.344 0-0.010-0.027-0.319-0.027-0.777zM13 24.5c3.033 0 5.5-2.467 5.5-5.5s-2.467-5.5-5.5-5.5-5.5 2.467-5.5 5.5 2.467 5.5 5.5 5.5zM13 14.5c2.481 0 4.5 2.019 4.5 4.5s-2.019 4.5-4.5 4.5-4.5-2.019-4.5-4.5 2.019-4.5 4.5-4.5zM27.477 5.314c-0.040 0.061-0.185 0.138-0.259 0.138l-1.861-0.018c-0.452 0-0.905 0.321-1.053 0.746 0 0-0.082 0.233-0.172 0.59s-0.128 0.601-0.128 0.601c-0.070 0.451 0.181 0.95 0.584 1.161l1.641 0.86c0.063 0.033 0.156 0.172 0.166 0.273l0.093 0.635c0.015 0.070-0.033 0.23-0.084 0.28l-1.322 1.296c-0.331 0.324-0.418 0.878-0.19 1.313l0.599 1c0.253 0.372 0.801 0.562 1.231 0.428l1.824-0.558c0.099 0 0.198 0.038 0.254 0.083l0.515 0.38c0.060 0.040 0.139 0.187 0.138 0.259l-0.018 1.852c-0.004 0.456 0.316 0.913 0.746 1.063 0 0 0.233 0.082 0.59 0.172s0.601 0.128 0.601 0.128c0.026 0.004 0.13 0.012 0.156 0.012 0.408 0 0.822-0.245 1.005-0.596l0.86-1.641c0.033-0.063 0.172-0.156 0.273-0.166l0.663-0.096c0.1 0 0.218 0.052 0.251 0.086l1.296 1.322c0.315 0.322 0.846 0.437 1.313 0.19l0.999-0.599c0.382-0.26 0.567-0.79 0.429-1.231l-0.552-1.767c-0.021-0.068 0.012-0.232 0.078-0.311l0.38-0.515c0.040-0.061 0.185-0.138 0.259-0.138l1.861 0.018c0.452 0 0.905-0.321 1.053-0.746 0 0 0.082-0.233 0.172-0.59s0.128-0.601 0.128-0.601c0.070-0.451-0.181-0.95-0.584-1.161l-1.641-0.86c-0.063-0.033-0.156-0.172-0.166-0.273l-0.092-0.633c-0.015-0.070 0.033-0.23 0.084-0.28l1.322-1.296c0.331-0.324 0.418-0.878 0.19-1.313l-0.599-1c-0.253-0.371-0.8-0.563-1.231-0.429l-1.825 0.558c-0.099 0-0.198-0.038-0.254-0.083l-0.515-0.38c-0.060-0.040-0.139-0.187-0.138-0.259l0.018-1.852c0.004-0.456-0.316-0.913-0.746-1.063 0 0-0.233-0.082-0.59-0.172s-0.601-0.128-0.601-0.128c-0.026-0.003-0.13-0.011-0.156-0.011-0.408 0-0.822 0.245-1.005 0.596l-0.86 1.641c-0.033 0.063-0.172 0.156-0.273 0.166l-0.663 0.095c-0.1 0-0.218-0.052-0.251-0.086l-1.296-1.322c-0.314-0.321-0.844-0.437-1.313-0.19l-1 0.598c-0.382 0.26-0.567 0.79-0.429 1.231l0.552 1.767c0.021 0.068-0.012 0.232-0.078 0.311l-0.379 0.515zM28.297 5.886l0.343-0.466c0.268-0.317 0.372-0.834 0.248-1.229l-0.551-1.766c-0.005-0.028 0.017-0.091 0.012-0.092l0.948-0.568 0.113 0.017 1.297 1.322c0.23 0.234 0.609 0.386 0.965 0.386 0.082 0 0.161-0.008 0.204-0.019l0.575-0.085c0.412-0.036 0.851-0.328 1.043-0.694l0.859-1.64c0.016-0.025 0.079-0.061 0.12-0.061 0.011 0.001 0.215 0.035 0.513 0.109s0.493 0.142 0.502 0.146c0.031 0.013 0.076 0.078 0.078 0.11l-0.018 1.852c-0.004 0.414 0.245 0.879 0.567 1.089l0.465 0.343c0.309 0.261 0.839 0.371 1.229 0.248l1.774-0.552c0.042 0 0.089 0.026 0.083 0.013l0.568 0.948c0.011 0.026 0 0.092-0.017 0.113l-1.322 1.297c-0.295 0.291-0.448 0.795-0.367 1.169l0.084 0.575c0.036 0.412 0.328 0.851 0.695 1.043l1.64 0.859c0.028 0.018 0.063 0.088 0.061 0.12-0.001 0.011-0.035 0.215-0.109 0.513s-0.142 0.493-0.146 0.502c-0.013 0.031-0.078 0.076-0.11 0.078l-1.862-0.018c-0.411 0-0.871 0.249-1.079 0.567l-0.342 0.465c-0.268 0.317-0.372 0.834-0.248 1.229l0.551 1.766c0.005 0.027-0.017 0.091-0.012 0.092l-0.948 0.568-0.113-0.017-1.297-1.322c-0.23-0.234-0.609-0.386-0.965-0.386-0.082 0-0.161 0.008-0.204 0.019l-0.575 0.085c-0.412 0.036-0.851 0.328-1.043 0.694l-0.859 1.64c-0.016 0.025-0.079 0.061-0.12 0.061v0c-0.011-0.001-0.215-0.035-0.513-0.109-0.297-0.075-0.493-0.142-0.502-0.146-0.031-0.013-0.076-0.078-0.078-0.11l0.018-1.852c0.004-0.414-0.245-0.879-0.567-1.089l-0.465-0.343c-0.222-0.188-0.549-0.3-0.875-0.3-0.126 0-0.246 0.018-0.355 0.052l-1.774 0.552c-0.043 0-0.090-0.023-0.083-0.013l-0.568-0.948c-0.011-0.026 0-0.092 0.017-0.113l1.322-1.297c0.295-0.291 0.448-0.795 0.367-1.169l-0.084-0.574c-0.036-0.412-0.328-0.851-0.695-1.043l-1.64-0.859c-0.028-0.018-0.063-0.088-0.061-0.12 0.001-0.011 0.035-0.215 0.109-0.513 0.075-0.297 0.142-0.493 0.146-0.502 0.013-0.031 0.078-0.076 0.11-0.078l1.862 0.018c0.411 0 0.871-0.249 1.079-0.567zM33 12c1.654 0 3-1.346 3-3s-1.346-3-3-3-3 1.346-3 3 1.346 3 3 3zM33 7c1.103 0 2 0.897 2 2s-0.897 2-2 2-2-0.897-2-2 0.897-2 2-2z"></path>
</symbol>
<symbol id="icon-paperclip" viewBox="0 0 34 32">
<path d="M5.587 31.867c2.015 0 4.183-1.026 5.707-2.551l16.883-17.169c0.866-0.866 1.348-2.014 1.356-3.231 0.009-1.22-0.459-2.364-1.316-3.222-1.768-1.767-4.661-1.751-6.462 0.048l-12.941 13.53c-0.203 0.213-0.196 0.552 0.018 0.756 0.213 0.204 0.55 0.196 0.756-0.017l12.932-13.522c1.373-1.374 3.591-1.391 4.941-0.040 0.653 0.653 1.010 1.526 1.003 2.458-0.006 0.935-0.377 1.816-1.046 2.486l-16.883 17.17c-1.776 1.775-5.426 3.385-7.615 1.194-1.037-1.037-1.557-2.309-1.503-3.679 0.053-1.36 0.693-2.72 1.807-3.833l19.296-19.584c1.026-1.026 2.629-1.62 4.396-1.626 0.011 0 0.021 0 0.032 0 1.752 0 3.333 0.577 4.342 1.586 1.016 1.015 1.594 2.609 1.587 4.374-0.007 1.767-0.601 3.369-1.634 4.402l-14.895 15.485c-0.205 0.213-0.198 0.551 0.015 0.756 0.212 0.204 0.551 0.198 0.755-0.015l14.888-15.478c1.225-1.224 1.932-3.1 1.939-5.146 0.009-2.047-0.684-3.919-1.899-5.134-1.208-1.208-3.064-1.9-5.098-1.9-0.012 0-0.024 0-0.036 0-2.047 0.008-3.923 0.715-5.15 1.942l-19.297 19.585c-2.701 2.701-2.827 6.495-0.301 9.021 0.947 0.946 2.154 1.354 3.423 1.354z"></path>
</symbol>
<symbol id="icon-tools" viewBox="0 0 31 32">
<path d="M0.211 5.646c-0.847 0.848-0.666 2.042 0.008 2.715 0.027 0.026 2.734 2.612 6.541 6.419 0.098 0.098 0.226 0.146 0.354 0.146s0.256-0.049 0.354-0.146c0.195-0.195 0.195-0.512 0-0.707-0.574-0.574-1.12-1.117-1.638-1.631l1.589-1.589c0.195-0.195 0.195-0.512 0-0.707s-0.512-0.195-0.707 0l-1.593 1.593c-0.891-0.88-1.676-1.648-2.315-2.271l3.615-3.615c0.195-0.195 0.195-0.512 0-0.707s-0.512-0.195-0.707 0l-3.626 3.626c-0.736-0.713-1.16-1.118-1.167-1.125-0.211-0.211-0.488-0.805 0-1.293l5-5c0.193-0.196 0.707-0.585 1.271-0.024 0.025 0.028 2.55 2.896 6.404 6.75 0.195 0.195 0.512 0.195 0.707 0s0.195-0.512 0-0.707c-3.83-3.829-6.336-6.675-6.382-6.727-0.932-0.93-2.056-0.651-2.707 0l-5.001 5zM21.419 24.146c-0.195-0.195-0.512-0.195-0.707 0l-1.591 1.59c-0.485-0.491-0.994-1.005-1.53-1.541-0.195-0.195-0.512-0.195-0.707 0s-0.195 0.512 0 0.707c3.704 3.703 6.291 6.469 6.328 6.509 0.343 0.344 0.813 0.533 1.323 0.533v0c0.525 0 1.056-0.205 1.385-0.535l4.998-5.057c0.629-0.629 0.665-1.696 0.078-2.285l-6.706-6.705c-0.195-0.195-0.512-0.195-0.707 0s-0.195 0.512 0 0.707l6.706 6.705c0.2 0.2 0.162 0.632-0.079 0.873l-4.999 5.057c-0.115 0.116-0.376 0.24-0.676 0.24 0 0 0 0 0 0-0.172 0-0.418-0.042-0.604-0.229-0.010-0.011-0.429-0.458-1.156-1.219l3.644-3.644c0.195-0.195 0.195-0.512 0-0.707s-0.512-0.195-0.707 0l-3.629 3.629c-0.624-0.649-1.389-1.438-2.26-2.326l1.596-1.596c0.195-0.194 0.195-0.51 0-0.706zM-0.293 31.829c0.096 0.098 0.225 0.15 0.358 0.15 0.048 0 0.096-0.007 0.143-0.021l10-2.979c0.081-0.024 0.153-0.067 0.212-0.127l17.090-17.205c0.024-0.024 0.036-0.055 0.054-0.082l3.656-3.656c0.294-0.295 0.457-0.686 0.457-1.103s-0.163-0.807-0.457-1.1l-5.235-5.234c-0.588-0.588-1.615-0.588-2.203 0l-3.739 3.739c-0.024 0.024-0.037 0.055-0.055 0.083l-17.116 17.117c-0.056 0.056-0.098 0.124-0.122 0.199l-3.16 9.715c-0.058 0.177-0.013 0.37 0.117 0.504zM20.425 5.271l1.039 1.039-15.523 15.565-1.727-0.392 16.211-16.212zM6.565 22.666l15.607-15.648 2.436 2.436-15.748 15.546h-2.295v-2.334zM26.449 11.296l-16.244 16.354-0.577-2.002 15.687-15.487 1.134 1.135zM3.558 22.359l2.007 0.456v2.685c0 0.276 0.224 0.5 0.5 0.5h2.624l0.634 2.2-8.488 2.529 2.723-8.37zM24.49 1.179c0.211-0.211 0.578-0.211 0.789 0l5.235 5.235c0.105 0.105 0.163 0.245 0.163 0.394 0 0.148-0.058 0.289-0.164 0.395l-3.371 3.372-6.023-6.023 3.371-3.373z"></path>
</symbol>
<symbol id="icon-tools-2" viewBox="0 0 32 32">
<path d="M28.354 1.354c0.115-0.115 0.167-0.279 0.139-0.439s-0.132-0.297-0.28-0.366c-2.291-1.080-5.010-0.606-6.798 1.191-1.698 1.709-2.291 4.393-1.499 6.637l-11.539 11.539c-0.627-0.224-1.297-0.336-1.996-0.336-1.714 0-3.376 0.682-4.559 1.872-1.782 1.792-2.284 4.44-1.281 6.747 0.066 0.152 0.203 0.262 0.366 0.292 0.164 0.031 0.331-0.021 0.447-0.139l3.491-3.509c0.23-0.232 0.601-0.263 0.793-0.068l1.507 1.577c0.219 0.221 0.209 0.562-0.022 0.795l-3.478 3.5c-0.115 0.115-0.166 0.279-0.138 0.439s0.132 0.296 0.279 0.365c0.829 0.391 1.701 0.588 2.591 0.588 1.572 0 3.065-0.632 4.207-1.78 1.698-1.708 2.291-4.392 1.498-6.636l11.539-11.54c0.628 0.224 1.298 0.336 1.997 0.336 1.714 0 3.376-0.682 4.559-1.872 1.782-1.792 2.284-4.44 1.281-6.747-0.066-0.152-0.203-0.262-0.366-0.292-0.161-0.028-0.33 0.021-0.447 0.139l-3.491 3.509c-0.215 0.216-0.58 0.214-0.801-0.010l-1.499-1.499c-0.226-0.227-0.225-0.568-0.001-0.794l3.501-3.499zM24.146 6.354l1.499 1.499c0.599 0.602 1.625 0.605 2.218 0.009l2.93-2.944c0.469 1.741-0.016 3.609-1.324 4.926-0.997 1.003-2.399 1.577-3.85 1.577-0.683 0-1.33-0.128-1.923-0.38-0.188-0.081-0.405-0.037-0.549 0.106l-12 12c-0.144 0.144-0.186 0.36-0.107 0.547 0.803 1.91 0.314 4.375-1.163 5.861-1.321 1.328-3.244 1.801-4.985 1.258l2.941-2.96c0.621-0.625 0.631-1.594 0.029-2.198l-1.506-1.577c-0.581-0.585-1.614-0.549-2.218 0.062l-2.93 2.944c-0.469-1.741 0.016-3.609 1.324-4.926 0.997-1.003 2.399-1.577 3.85-1.577 0.683 0 1.33 0.128 1.923 0.38 0.187 0.082 0.405 0.037 0.549-0.106l12-12c0.144-0.144 0.186-0.36 0.107-0.547-0.803-1.91-0.314-4.376 1.163-5.862 1.32-1.328 3.242-1.798 4.982-1.258l-2.96 2.961c-0.616 0.617-0.616 1.585 0 2.205zM29.21 30.647c-0.221 0.222-0.604 0.222-0.827-0.002l-10.030-10c-0.195-0.193-0.512-0.194-0.707 0.002s-0.194 0.512 0.001 0.707l10.029 9.998c0.3 0.301 0.698 0.467 1.122 0.467 0 0 0 0 0 0 0.424 0 0.822-0.166 1.128-0.474l1.429-1.493c0.615-0.618 0.615-1.587-0.001-2.206l-10-10c-0.195-0.195-0.512-0.195-0.707 0s-0.195 0.512 0 0.707l9.999 9.999c0.229 0.23 0.229 0.564-0.007 0.802l-1.429 1.493zM5.854 3.146l-3-3c-0.195-0.195-0.512-0.195-0.707 0l-2 2c-0.195 0.195-0.195 0.512 0 0.707l3 3c0.097 0.098 0.225 0.147 0.353 0.147s0.256-0.049 0.354-0.146l0.646-0.647 7.646 7.646c0.098 0.098 0.226 0.147 0.354 0.147s0.256-0.049 0.354-0.146c0.195-0.195 0.195-0.512 0-0.707l-7.647-7.647 0.646-0.646c0.196-0.196 0.196-0.512 0.001-0.708zM3.5 4.793l-2.293-2.293 1.293-1.293 2.293 2.293-1.293 1.293z"></path>
</symbol>
<symbol id="icon-browser" viewBox="0 0 20 20">
<path d="M18 2h-16c-1.1 0-2 0.9-2 2v12c0 1.1 0.9 2 2 2h16c1.1 0 2-0.9 2-2v-12c0-1.1-0.9-2-2-2zM4.5 3.75c0.414 0 0.75 0.336 0.75 0.75s-0.336 0.75-0.75 0.75c-0.414 0-0.75-0.336-0.75-0.75s0.336-0.75 0.75-0.75zM1.75 4.5c0-0.414 0.336-0.75 0.75-0.75s0.75 0.336 0.75 0.75c0 0.414-0.336 0.75-0.75 0.75s-0.75-0.336-0.75-0.75zM18 16h-16v-9h16v9zM18 5h-12v-1h12.019l-0.019 1z"></path>
</symbol>
<symbol id="icon-code" viewBox="0 0 20 20">
<path d="M5.719 14.75c-0.236 0-0.474-0.083-0.664-0.252l-5.060-4.498 5.341-4.748c0.412-0.365 1.044-0.33 1.411 0.083s0.33 1.045-0.083 1.412l-3.659 3.253 3.378 3.002c0.413 0.367 0.45 0.999 0.083 1.412-0.197 0.223-0.472 0.336-0.747 0.336zM14.664 14.748l5.341-4.748-5.060-4.498c-0.413-0.367-1.045-0.33-1.411 0.083s-0.33 1.045 0.083 1.412l3.378 3.003-3.659 3.252c-0.413 0.367-0.45 0.999-0.083 1.412 0.197 0.223 0.472 0.336 0.747 0.336 0.236 0 0.474-0.083 0.664-0.252zM9.986 16.165l2-12c0.091-0.545-0.277-1.060-0.822-1.151-0.547-0.092-1.061 0.277-1.15 0.822l-2 12c-0.091 0.545 0.277 1.060 0.822 1.151 0.056 0.009 0.11 0.013 0.165 0.013 0.48 0 0.904-0.347 0.985-0.835z"></path>
</symbol>
<symbol id="icon-linkedin" viewBox="0 0 32 32">
<path d="M29 0h-26c-1.65 0-3 1.35-3 3v26c0 1.65 1.35 3 3 3h26c1.65 0 3-1.35 3-3v-26c0-1.65-1.35-3-3-3zM12 26h-4v-14h4v14zM10 10c-1.106 0-2-0.894-2-2s0.894-2 2-2c1.106 0 2 0.894 2 2s-0.894 2-2 2zM26 26h-4v-8c0-1.106-0.894-2-2-2s-2 0.894-2 2v8h-4v-14h4v2.481c0.825-1.131 2.087-2.481 3.5-2.481 2.488 0 4.5 2.238 4.5 5v9z"></path>
</symbol>
<symbol id="icon-ruler" viewBox="0 0 20 20">
<path d="M14.249 0.438l-13.811 13.813c-0.584 0.584-0.584 1.538 0.002 2.124l3.185 3.187c0.584 0.584 1.541 0.586 2.124 0.002l13.813-13.813c0.584-0.585 0.584-1.541 0-2.125l-3.186-3.188c-0.587-0.586-1.542-0.583-2.127 0zM3.929 15.312l-0.759 0.759-1.896-1.897 0.759-0.759 1.896 1.897zM6.965 15.312l-0.759 0.759-3.415-3.415 0.759-0.76 3.415 3.416zM6.965 12.276l-0.759 0.759-1.898-1.896 0.76-0.76 1.897 1.897zM8.483 10.758l-0.759 0.759-1.896-1.896 0.759-0.76 1.896 1.897zM11.518 10.758l-0.759 0.759-3.414-3.414 0.759-0.759 3.414 3.414zM11.518 7.723l-0.759 0.759-1.896-1.896 0.759-0.759 1.896 1.896zM13.036 6.206l-0.759 0.759-1.897-1.897 0.759-0.759 1.897 1.897zM16.072 6.206l-0.76 0.759-3.414-3.415 0.759-0.76 3.415 3.416zM16.071 3.171l-0.759 0.759-1.896-1.898 0.759-0.758 1.896 1.897z"></path>
</symbol>
<symbol id="icon-github1" viewBox="0 0 32 32">
<path d="M16 0.395c-8.836 0-16 7.163-16 16 0 7.069 4.585 13.067 10.942 15.182 0.8 0.148 1.094-0.347 1.094-0.77 0-0.381-0.015-1.642-0.022-2.979-4.452 0.968-5.391-1.888-5.391-1.888-0.728-1.849-1.776-2.341-1.776-2.341-1.452-0.993 0.11-0.973 0.11-0.973 1.606 0.113 2.452 1.649 2.452 1.649 1.427 2.446 3.743 1.739 4.656 1.33 0.143-1.034 0.558-1.74 1.016-2.14-3.554-0.404-7.29-1.777-7.29-7.907 0-1.747 0.625-3.174 1.649-4.295-0.166-0.403-0.714-2.030 0.155-4.234 0 0 1.344-0.43 4.401 1.64 1.276-0.355 2.645-0.532 4.005-0.539 1.359 0.006 2.729 0.184 4.008 0.539 3.054-2.070 4.395-1.64 4.395-1.64 0.871 2.204 0.323 3.831 0.157 4.234 1.026 1.12 1.647 2.548 1.647 4.295 0 6.145-3.743 7.498-7.306 7.895 0.574 0.497 1.085 1.47 1.085 2.963 0 2.141-0.019 3.864-0.019 4.391 0 0.426 0.288 0.925 1.099 0.768 6.354-2.118 10.933-8.113 10.933-15.18 0-8.837-7.164-16-16-16z"></path>
</symbol>
<symbol id="icon-hackajob" viewBox="0 0 500 500">
<path d="M221.403 7.842 C 215.203 8.246,210.667 9.030,209.653 9.872 C 208.160 11.112,208.000 15.643,208.000 56.587 C 208.000 100.392,207.934 101.965,206.066 102.965 C 204.000 104.070,186.006 104.376,182.250 103.370 L 180.000 102.767 180.000 72.494 C 180.000 35.524,180.990 38.086,166.392 37.282 C 154.539 36.629,145.591 37.552,143.499 39.643 C 142.206 40.937,142.000 48.138,142.000 92.015 L 142.000 142.887 144.223 144.443 C 146.178 145.813,154.198 146.000,211.068 146.000 C 272.403 146.000,275.774 145.907,277.345 144.171 C 278.850 142.509,279.000 136.377,279.000 76.694 L 279.000 11.046 276.700 9.539 C 274.889 8.352,269.837 7.942,252.950 7.608 C 241.152 7.375,226.956 7.481,221.403 7.842 M379.219 23.750 C 378.823 24.712,378.500 59.068,378.500 100.096 C 378.500 161.853,378.736 174.977,379.872 176.346 C 381.110 177.837,385.413 178.000,423.500 178.000 C 459.882 178.000,465.929 177.791,467.003 176.497 C 468.326 174.902,468.126 168.695,466.065 147.500 C 459.774 82.794,439.231 46.396,398.609 27.977 C 385.130 21.865,380.415 20.837,379.219 23.750 M93.951 26.366 C 64.628 39.238,46.021 58.960,34.133 89.769 C 29.422 101.978,24.000 122.875,24.000 128.822 C 24.000 130.498,23.546 133.063,22.992 134.522 C 22.437 135.981,21.524 142.873,20.962 149.837 C 20.400 156.802,19.545 165.379,19.062 168.898 C 18.579 172.417,18.043 191.476,17.872 211.251 C 17.573 245.688,17.641 247.264,19.471 248.603 C 21.035 249.746,28.959 250.000,63.120 250.000 C 105.573 250.000,105.737 249.988,108.129 246.679 C 108.200 246.580,108.538 239.750,108.879 231.500 L 109.500 216.500 228.200 216.000 C 310.294 215.654,347.229 215.171,347.967 214.434 C 349.670 212.730,348.914 40.512,347.196 38.800 C 346.244 37.850,341.894 37.501,331.049 37.502 C 317.881 37.504,315.969 37.718,314.110 39.401 C 312.027 41.285,312.012 41.716,311.757 107.899 L 311.500 174.500 211.608 174.755 C 138.628 174.941,111.351 174.706,110.358 173.882 C 109.237 172.952,109.000 160.475,109.000 102.517 C 109.000 63.886,108.714 30.191,108.364 27.640 C 107.761 23.242,107.566 23.001,104.614 23.026 C 102.901 23.041,98.103 24.544,93.951 26.366 M380.898 212.882 C 378.705 214.657,378.544 215.603,378.037 229.632 L 377.500 244.500 261.404 245.000 C 165.018 245.415,145.026 245.733,143.654 246.872 C 142.139 248.130,142.000 255.458,142.000 334.051 C 142.000 409.291,142.186 420.043,143.512 421.369 C 145.713 423.571,152.788 424.341,165.343 423.746 C 175.219 423.277,176.595 422.984,178.201 421.000 C 179.892 418.912,180.000 414.877,180.000 354.080 C 180.000 303.895,180.280 289.001,181.250 287.683 C 182.414 286.100,189.224 286.001,280.000 286.242 L 377.500 286.500 378.000 360.000 C 378.275 400.425,378.864 434.063,379.309 434.750 C 382.249 439.293,404.039 430.017,420.347 417.281 C 428.141 411.194,429.863 409.397,437.535 399.342 C 460.007 369.891,469.498 323.698,468.803 247.168 C 468.515 215.517,468.402 213.765,466.559 212.418 C 464.958 211.249,457.477 211.000,423.920 211.000 C 385.565 211.000,383.088 211.108,380.898 212.882 M19.200 284.200 C 17.526 285.874,17.704 298.940,19.517 307.500 C 20.333 311.349,21.000 316.115,21.000 318.090 C 21.000 322.183,24.024 337.675,27.129 349.492 C 33.357 373.194,44.658 394.200,59.245 409.190 C 65.100 415.206,78.864 424.988,87.648 429.374 C 102.081 436.582,106.126 437.501,108.002 433.997 C 108.744 432.610,108.985 409.385,108.787 358.460 C 108.537 294.396,108.307 284.804,107.000 283.978 C 104.643 282.489,20.699 282.701,19.200 284.200 M210.000 317.000 C 208.042 318.958,208.000 320.333,208.000 383.045 L 208.000 447.091 210.455 449.545 L 212.909 452.000 243.763 452.000 C 268.826 452.000,274.982 451.734,276.559 450.581 C 278.421 449.220,278.520 447.216,279.000 401.331 L 279.500 353.500 294.500 352.901 C 304.969 352.483,309.874 352.642,310.738 353.425 C 311.672 354.272,311.990 362.467,312.028 386.713 C 312.076 416.586,312.213 419.042,313.948 421.184 C 315.750 423.410,316.352 423.491,330.986 423.496 C 344.850 423.500,346.278 423.333,347.578 421.559 C 348.763 419.942,349.000 411.261,349.000 369.531 C 349.000 325.818,348.802 319.162,347.443 317.223 L 345.887 315.000 278.943 315.000 C 213.333 315.000,211.960 315.040,210.000 317.000 "></path>
</symbol>
<symbol id="icon-slideshare" viewBox="0 0 20 20">
<path d="M13 7.080c1.381 0 2.5-1.119 2.5-2.5s-1.119-2.5-2.5-2.5-2.5 1.119-2.5 2.5 1.12 2.5 2.5 2.5zM18.845 5.943c-3.58 2.555-5.229 2.108-6.845 2.057-1.118-0.057-1.5 0.298-1.5 1.080l0.001 6c0 5 8.421 3.43 5.165-4.949 1.671-0.959 3.076-2.434 3.876-3.412 0.411-0.608-0.028-1.245-0.697-0.776zM7 2.080c-1.381 0-2.5 1.119-2.5 2.5s1.119 2.5 2.5 2.5 2.5-1.119 2.5-2.5-1.12-2.5-2.5-2.5zM8 8c-1.616 0.051-3.265 0.498-6.845-2.057-0.669-0.469-1.108 0.168-0.697 0.775 0.8 0.979 2.205 2.453 3.876 3.412-3.256 8.379 5.165 9.949 5.165 4.949l0.001-6c0-0.781-0.382-1.136-1.5-1.079z"></path>
</symbol>
<symbol id="icon-images" viewBox="0 0 36 32">
<path d="M34 4h-2v-2c0-1.1-0.9-2-2-2h-28c-1.1 0-2 0.9-2 2v24c0 1.1 0.9 2 2 2h2v2c0 1.1 0.9 2 2 2h28c1.1 0 2-0.9 2-2v-24c0-1.1-0.9-2-2-2zM4 6v20h-1.996c-0.001-0.001-0.003-0.002-0.004-0.004v-23.993c0.001-0.001 0.002-0.003 0.004-0.004h27.993c0.001 0.001 0.003 0.002 0.004 0.004v1.996h-24c-1.1 0-2 0.9-2 2v0zM34 29.996c-0.001 0.001-0.002 0.003-0.004 0.004h-27.993c-0.001-0.001-0.003-0.002-0.004-0.004v-23.993c0.001-0.001 0.002-0.003 0.004-0.004h27.993c0.001 0.001 0.003 0.002 0.004 0.004v23.993z"></path>
<path d="M30 11c0 1.657-1.343 3-3 3s-3-1.343-3-3 1.343-3 3-3 3 1.343 3 3z"></path>
<path d="M32 28h-24v-4l7-12 8 10h2l7-6z"></path>
</symbol>
<symbol id="icon-hammer" viewBox="0 0 32 32">
<path d="M31.562 25.905l-9.423-9.423c-0.583-0.583-1.538-0.583-2.121 0l-0.707 0.707-5.75-5.75 9.439-9.439h-10l-4.439 4.439-0.439-0.439h-2.121v2.121l0.439 0.439-6.439 6.439 5 5 6.439-6.439 5.75 5.75-0.707 0.707c-0.583 0.583-0.583 1.538 0 2.121l9.423 9.423c0.583 0.583 1.538 0.583 2.121 0l3.535-3.535c0.583-0.583 0.583-1.538 0-2.121z"></path>
</symbol>
<symbol id="icon-terminal" viewBox="0 0 32 32">
<path d="M0 2v28h32v-28h-32zM30 28h-28v-24h28v24zM28 6h-24v20h24v-20zM14 16h-2v2h-2v2h-2v-2h2v-2h2v-2h-2v-2h-2v-2h2v2h2v2h2v2zM22 20h-6v-2h6v2z"></path>
</symbol>
<symbol id="icon-git" viewBox="0 0 32 32">
<path d="M31.397 14.575l-13.972-13.971c-0.804-0.805-2.109-0.805-2.915 0l-3.246 3.246 2.443 2.443c0.392-0.187 0.83-0.293 1.293-0.293 1.657 0 3 1.343 3 3 0 0.463-0.105 0.902-0.293 1.293l3.999 3.999c0.392-0.187 0.83-0.293 1.293-0.293 1.657 0 3 1.343 3 3s-1.343 3-3 3-3-1.343-3-3c0-0.463 0.105-0.902 0.293-1.293l-3.999-3.999c-0.095 0.046-0.193 0.086-0.293 0.121v8.343c1.165 0.412 2 1.522 2 2.829 0 1.657-1.343 3-3 3s-3-1.343-3-3c0-1.306 0.835-2.417 2-2.829v-8.343c-1.165-0.412-2-1.522-2-2.829 0-0.463 0.105-0.902 0.293-1.293l-2.443-2.443-9.247 9.246c-0.805 0.806-0.805 2.11 0 2.915l13.973 13.971c0.804 0.805 2.109 0.805 2.915 0l13.906-13.906c0.805-0.805 0.805-2.111-0-2.915z"></path>
</symbol>
</defs>
</svg>
